PathFileType	4	(X/Y/Z)	s01c0403.trc
DataRate	CameraRate	NumFrames	NumMarkers	Units	OrigDataRate	OrigDataStartFrame	OrigNumFrames
200	200	6	47	mm	200	1000	2000
Frame#	Time	racr			lacr			c7			jug			rlel			rdr			llel			ldr			lic			ric			lasi			rasi			rpsi			lpsi			rgt			lgt			rth1			rth2			rth3			rth4			rlfc			rsh1			rsh2			rsh3			rsh4			rlmal			rmmal			rcal			rtoe			rmt5			lth1			lth2			lth4			lth3			llfc			lsh1			lsh2			lsh3			lsh4			llmal			lmmal			lcal			ltoe			lmt5			SBIKE			LBIKE			RBIKE			
		X1	Y1	Z1	X2	Y2	Z2	X3	Y3	Z3	X4	Y4	Z4	X5	Y5	Z5	X6	Y6	Z6	X7	Y7	Z7	X8	Y8	Z8	X9	Y9	Z9	X10	Y10	Z10	X11	Y11	Z11	X12	Y12	Z12	X13	Y13	Z13	X14	Y14	Z14	X15	Y15	Z15	X16	Y16	Z16	X17	Y17	Z17	X18	Y18	Z18	X19	Y19	Z19	X20	Y20	Z20	X21	Y21	Z21	X22	Y22	Z22	X23	Y23	Z23	X24	Y24	Z24	X25	Y25	Z25	X26	Y26	Z26	X27	Y27	Z27	X28	Y28	Z28	X29	Y29	Z29	X30	Y30	Z30	X31	Y31	Z31	X32	Y32	Z32	X33	Y33	Z33	X34	Y34	Z34	X35	Y35	Z35	X36	Y36	Z36	X37	Y37	Z37	X38	Y38	Z38	X39	Y39	Z39	X40	Y40	Z40	X41	Y41	Z41	X42	Y42	Z42	X43	Y43	Z43	X44	Y44	Z44	X45	Y45	Z45	X46	Y46	Z46	X47	Y47	Z47	
1000	5.0000	694.047363	1332.568359	-113.411232	697.240234	1305.660645	-484.545166	673.281982	1428.239990	-299.144379	671.994568	1262.057129	-294.075134	568.959656	1091.673706	27.195883	706.073486	897.658203	-38.888618	544.808289	1058.553101	-578.515564	690.448059	900.322815	-457.181976	289.120056	1223.388916	-436.193390	324.263763	1195.438110	-105.462257	303.623383	1170.633301	-409.096436	339.865234	1147.841553	-133.005814	183.913834	1240.826416	-189.914413	170.062195	1248.475098	-292.686279	246.817413	1075.019775	-77.051865	256.854980	1099.659912	-455.478943	281.818024	959.268921	-60.518913	310.182678	880.671936	-61.566261	334.831207	794.267822	-68.786797	363.453217	896.968323	-70.629372	332.122314	675.857544	-86.969048	269.370026	578.924011	-54.606216	239.482651	499.608093	-57.602383	200.821213	419.834534	-67.821342	287.508331	480.042847	-88.705544	148.967163	314.108765	-89.548134	195.031036	311.463684	-161.664124	109.099121	329.010590	-143.640320	272.303375	112.353165	-138.139557	180.922211	167.417908	-66.289001	348.120270	1019.020142	-463.177673	433.558990	996.427917	-468.153534	449.772705	1049.278564	-458.904541	514.441772	967.821960	-458.800201	600.302979	893.175293	-441.245209	507.099060	844.117126	-462.166168	445.500610	783.432922	-454.615936	383.509674	725.435059	-437.670105	487.314392	744.998962	-430.816803	284.038605	627.949951	-414.031464	313.618744	623.436707	-334.320587	220.403320	624.053650	-369.023651	435.919067	448.092804	-373.054688	338.546814	490.722015	-440.919159	-225.544876	892.832214	-254.592743	-13.415207	84.835663	-457.911926	-23.172215	81.043518	-57.903336	
1001	5.0050	694.072449	1331.480591	-115.428513	696.886414	1303.469360	-486.342407	673.612122	1427.053345	-301.513672	671.196472	1260.650391	-295.659668	569.046997	1091.463623	25.783052	706.044800	897.573364	-38.811581	543.755127	1056.777222	-579.478760	690.121338	900.204163	-457.447144	288.280365	1225.743408	-437.184601	323.660095	1198.155640	-106.311981	303.258118	1172.648804	-410.455780	339.605408	1150.291016	-133.884613	183.602631	1242.887329	-191.208176	170.073502	1250.698730	-294.184021	246.968582	1077.412964	-77.862381	256.629181	1102.119995	-456.040283	284.008179	961.122559	-62.110676	313.463074	882.940308	-63.498501	339.319977	796.892273	-71.086578	367.086151	899.976074	-71.654205	336.710571	678.895142	-88.225365	272.370514	582.962158	-55.729149	241.116272	504.186859	-58.529747	201.150452	425.054291	-68.553436	288.753235	483.722198	-89.659767	147.448929	320.179260	-89.426704	193.986694	316.664612	-161.992676	108.147537	336.790222	-144.455261	261.877289	113.115234	-138.394745	173.224808	172.604233	-66.840881	346.623962	1018.673767	-462.426849	431.799408	995.060547	-467.008179	448.521393	1048.010498	-459.000916	512.231567	965.962280	-458.291260	599.114319	891.921631	-439.717865	506.657227	840.557373	-460.425934	445.692627	778.732239	-454.173706	384.203918	720.121277	-438.031891	487.783447	740.848022	-430.024933	284.802765	619.549988	-413.548370	315.283417	617.343506	-334.496124	221.844421	613.983765	-369.842773	445.278168	448.063324	-373.372009	345.929260	485.516785	-441.563324	-225.538208	892.886292	-254.842987	-13.381669	84.914688	-457.914459	-23.142776	81.121864	-57.929722	
1002	5.0100	694.176819	1330.209473	-117.328354	696.581055	1301.091553	-487.995056	673.946228	1425.938477	-303.751892	670.273438	1259.093872	-297.139496	569.019348	1091.270752	24.506897	705.973877	897.516724	-38.618427	542.460876	1054.812988	-580.325195	689.795410	900.021851	-457.718231	287.737946	1228.049927	-438.288757	322.863922	1200.898438	-107.115898	303.129608	1174.354370	-411.518311	339.246460	1152.486938	-134.621979	183.410904	1244.946533	-192.720856	170.180817	1252.675537	-295.693298	247.016479	1079.816772	-78.734116	256.357483	1104.455078	-456.568176	286.326538	962.776306	-63.699295	317.043030	885.146240	-65.500359	344.275635	799.585510	-73.050903	370.251373	902.929138	-73.366203	342.045441	681.940674	-89.714043	276.067474	586.895813	-56.950672	243.441910	508.757294	-59.616974	201.942612	430.277008	-69.535797	290.451202	487.421082	-91.063789	145.872849	326.591614	-89.558220	192.622894	321.948486	-162.705841	106.943878	344.546631	-145.352036	251.632675	114.862724	-138.521851	165.783279	178.357040	-67.538498	344.861359	1017.910461	-461.875702	429.880127	993.123901	-465.886505	447.252838	1045.871582	-458.917969	509.633057	962.959045	-457.393311	598.068909	889.010376	-437.737488	505.323364	835.625000	-458.764282	445.186127	772.674072	-453.324890	384.513000	713.009460	-437.419800	487.600464	735.373901	-428.849304	287.780914	611.897705	-415.023102	316.942444	610.055237	-334.616455	223.825195	601.836121	-371.229919	453.742615	447.227814	-373.499756	353.051300	479.598206	-442.419373	-225.503662	892.898987	-255.136383	-13.360210	84.884483	-457.968109	-23.118761	81.184303	-57.960773	
1003	5.0150	694.320801	1328.959595	-119.005913	696.513062	1298.880981	-489.803284	674.336548	1424.751953	-305.821167	669.241943	1257.365479	-298.411682	568.786926	1091.004639	23.290224	705.874268	897.478210	-38.372242	541.249512	1052.909424	-581.285950	689.432007	899.840576	-458.049316	287.448395	1230.401733	-439.469788	321.675110	1203.554810	-108.227638	303.128510	1175.814331	-412.592987	338.905243	1154.587646	-135.338318	183.316025	1246.897583	-194.329330	170.312943	1254.655762	-297.237335	246.971939	1082.005859	-79.587891	256.093170	1106.617798	-457.131683	288.724762	964.276245	-65.355057	320.796875	887.203674	-67.546692	349.356750	802.271667	-74.622269	373.469727	905.768799	-75.303520	348.082611	684.942505	-91.432014	280.297363	590.759033	-58.274601	246.113159	513.294006	-60.908161	203.023026	435.680115	-70.714897	292.413910	491.221558	-93.065681	144.076263	333.495056	-89.983353	190.874969	327.379333	-163.700150	105.556923	352.523804	-146.485001	241.633774	117.450081	-138.570175	158.477768	184.601105	-68.111877	343.130249	1016.819336	-461.245667	427.817627	990.693542	-464.854523	445.937286	1042.936523	-459.030609	506.737793	958.910400	-456.403809	594.113525	883.901672	-437.640503	503.247223	829.580933	-457.258636	444.264893	765.664429	-452.407227	384.574005	704.857910	-436.909058	487.181976	728.959778	-427.723969	254.300629	551.195068	-369.039185	318.658752	601.681641	-334.493530	226.057587	590.146240	-372.154114	462.396088	445.524261	-374.345612	360.020111	472.852844	-443.065887	-225.455215	892.919922	-255.417084	-13.351204	84.861565	-458.027954	-23.089857	81.230095	-58.000912	
1004	5.0200	694.517639	1327.570068	-120.493782	696.299072	1296.518555	-491.107361	674.812256	1423.650635	-307.712555	668.225342	1255.664551	-299.607544	568.447754	1090.768555	22.272446	705.680176	897.405579	-38.037838	540.149780	1050.888794	-582.117798	689.101501	899.623657	-458.437592	287.373169	1232.404297	-440.785828	320.801208	1205.978760	-108.916618	303.282227	1177.048584	-413.396942	338.500610	1156.488892	-136.091339	183.541626	1248.146606	-196.057144	170.494614	1256.509155	-298.762268	246.924347	1084.185791	-80.200111	255.816284	1108.437988	-457.675659	291.229218	965.633301	-66.943687	324.726990	889.102173	-69.520966	354.790802	804.786926	-76.735275	376.286957	908.720093	-77.656425	354.694885	687.877319	-93.264015	284.951263	594.525208	-59.690178	249.171036	517.840576	-62.392254	204.279221	441.105957	-72.034897	294.533142	494.956360	-95.176949	141.987122	340.636261	-90.745491	188.744598	333.058472	-164.838150	103.860245	360.873108	-147.420242	231.893646	121.026955	-138.563766	151.257233	191.399246	-68.744797	341.315308	1015.467041	-460.960968	425.647705	987.880798	-463.961761	444.688751	1039.451294	-459.230438	503.593262	954.229553	-455.466919	593.226135	879.115662	-434.479187	500.705353	822.557007	-456.109741	442.963684	757.448853	-451.345032	384.516663	695.628235	-436.212097	486.576874	721.620117	-426.514618	266.129150	554.313782	-381.105896	320.296265	592.365479	-333.977478	228.293961	577.592957	-372.745392	470.181335	442.607330	-374.628265	366.778748	465.415558	-443.618561	-225.381912	892.908752	-255.719666	-13.316628	84.778191	-458.108002	-23.100639	81.298187	-58.065617	
1005	5.0250	694.593140	1326.052490	-121.907944	696.043884	1294.204102	-492.364075	675.320740	1422.485229	-309.239136	667.201477	1253.985596	-300.572083	568.055054	1090.514526	21.455114	705.443176	897.268860	-37.666687	539.027161	1048.943481	-582.946838	688.847046	899.359436	-458.740479	287.522491	1233.896973	-442.073181	319.903107	1208.209473	-109.569130	303.597137	1177.710327	-413.979401	338.064819	1158.099365	-136.702301	183.487228	1249.846680	-197.606384	170.258957	1258.499146	-300.208679	246.762268	1086.132812	-80.792488	255.555252	1109.869751	-458.242554	293.771362	966.796204	-68.597389	328.729004	891.000366	-71.448334	360.497864	807.091614	-79.446320	379.683014	911.423584	-79.691216	361.706116	690.694031	-95.249794	289.961578	598.202332	-61.206047	252.342178	522.430237	-63.987911	205.608597	446.840179	-73.441025	296.756348	498.746613	-97.521400	139.757324	348.386810	-91.570175	186.625702	339.193298	-165.981415	101.933357	369.414093	-148.457748	222.602478	125.684700	-138.496445	144.176025	198.731003	-69.308014	339.662933	1014.110901	-460.675964	423.404724	984.804138	-463.240936	443.395721	1035.849854	-459.535095	500.384491	949.282654	-454.527832	590.936218	873.507141	-432.409515	498.188477	814.515320	-455.304443	441.589447	748.517944	-450.241180	384.640839	685.998413	-436.039429	485.829102	713.661804	-425.225281	268.380951	540.597168	-379.296448	322.207458	582.097900	-333.359344	230.959747	564.375305	-373.283783	477.347565	438.632172	-374.773163	373.280273	457.386597	-443.879272	-225.300751	892.921570	-256.002747	-13.306796	84.743439	-458.139832	-23.081999	81.314743	-58.116604	
